<svg width="31" height="30" viewBox="0 0 31 30" fill="none" xmlns="http://www.w3.org/2000/svg">
<g id="check_circle">
<mask id="mask0_9968_7372" style="mask-type:alpha" maskUnits="userSpaceOnUse" x="0" y="0" width="31" height="30">
<rect id="Bounding box" x="0.0644531" width="30" height="30" fill="#D9D9D9"/>
</mask>
<g mask="url(#mask0_9968_7372)">
<path id="check_circle_2" d="M13.3145 20.75L22.127 11.9375L20.377 10.1875L13.3145 17.25L9.75195 13.6875L8.00195 15.4375L13.3145 20.75ZM15.0645 27.5C13.3353 27.5 11.7103 27.1717 10.1895 26.515C8.66862 25.8592 7.3457 24.9688 6.2207 23.8438C5.0957 22.7188 4.20529 21.3958 3.54945 19.875C2.89279 18.3542 2.56445 16.7292 2.56445 15C2.56445 13.2708 2.89279 11.6458 3.54945 10.125C4.20529 8.60417 5.0957 7.28125 6.2207 6.15625C7.3457 5.03125 8.66862 4.14042 10.1895 3.48375C11.7103 2.82792 13.3353 2.5 15.0645 2.5C16.7936 2.5 18.4186 2.82792 19.9395 3.48375C21.4603 4.14042 22.7832 5.03125 23.9082 6.15625C25.0332 7.28125 25.9236 8.60417 26.5795 10.125C27.2361 11.6458 27.5645 13.2708 27.5645 15C27.5645 16.7292 27.2361 18.3542 26.5795 19.875C25.9236 21.3958 25.0332 22.7188 23.9082 23.8438C22.7832 24.9688 21.4603 25.8592 19.9395 26.515C18.4186 27.1717 16.7936 27.5 15.0645 27.5Z" fill="#186750"/>
</g>
</g>
</svg>
